<svg class="main-svg" xmlns="http://www.w3.org/2000/svg" xmlns:xlink="http://www.w3.org/1999/xlink" width="700" height="450" style="" viewBox="0 0 700 450"><rect x="0" y="0" width="700" height="450" style="fill: rgb(255, 255, 255); fill-opacity: 1;"/><defs id="defs-cf42f9"><g class="clips"><clipPath id="clipcf42f9xyplot" class="plotclip"><rect width="516" height="270"/></clipPath><clipPath class="axesclip" id="clipcf42f9x"><rect x="80" y="0" width="516" height="450"/></clipPath><clipPath class="axesclip" id="clipcf42f9y"><rect x="0" y="100" width="700" height="270"/></clipPath><clipPath class="axesclip" id="clipcf42f9xy"><rect x="80" y="100" width="516" height="270"/></clipPath></g><g class="gradients"/></defs><g class="bglayer"/><g class="layer-below"><g class="imagelayer"/><g class="shapelayer"/></g><g class="cartesianlayer"><g class="subplot xy"><g class="layer-subplot"><g class="shapelayer"/><g class="imagelayer"/></g><g class="gridlayer"><g class="x"><path class="xgrid crisp" transform="translate(174.78,0)" d="M0,100v270" style="stroke: rgb(238, 238, 238); stroke-opacity: 1; stroke-width: 1px;"/><path class="xgrid crisp" transform="translate(280.08000000000004,0)" d="M0,100v270" style="stroke: rgb(238, 238, 238); stroke-opacity: 1; stroke-width: 1px;"/><path class="xgrid crisp" transform="translate(385.39,0)" d="M0,100v270" style="stroke: rgb(238, 238, 238); stroke-opacity: 1; stroke-width: 1px;"/><path class="xgrid crisp" transform="translate(490.69,0)" d="M0,100v270" style="stroke: rgb(238, 238, 238); stroke-opacity: 1; stroke-width: 1px;"/></g><g class="y"><path class="ygrid crisp" transform="translate(0,316.87)" d="M80,0h516" style="stroke: rgb(238, 238, 238); stroke-opacity: 1; stroke-width: 1px;"/><path class="ygrid crisp" transform="translate(0,272.83000000000004)" d="M80,0h516" style="stroke: rgb(238, 238, 238); stroke-opacity: 1; stroke-width: 1px;"/><path class="ygrid crisp" transform="translate(0,228.8)" d="M80,0h516" style="stroke: rgb(238, 238, 238); stroke-opacity: 1; stroke-width: 1px;"/><path class="ygrid crisp" transform="translate(0,184.76)" d="M80,0h516" style="stroke: rgb(238, 238, 238); stroke-opacity: 1; stroke-width: 1px;"/><path class="ygrid crisp" transform="translate(0,140.72)" d="M80,0h516" style="stroke: rgb(238, 238, 238); stroke-opacity: 1; stroke-width: 1px;"/></g></g><g class="zerolinelayer"><path class="yzl zl crisp" transform="translate(0,360.91)" d="M80,0h516" style="stroke: rgb(68, 68, 68); stroke-opacity: 1; stroke-width: 1px;"/></g><path class="xlines-below"/><path class="ylines-below"/><g class="overlines-below"/><g class="xaxislayer-below"/><g class="yaxislayer-below"/><g class="overaxes-below"/><g class="plot" transform="translate(80, 100)" clip-path="url(#clipcf42f9xyplot)"><g class="scatterlayer mlayer"><g class="trace scatter tracefc7a29" style="stroke-miterlimit: 2;"><g class="fills"><g><path class="js-fill" d="M0,239.33L10.53,239.21L21.06,243.92L31.59,232.98L42.12,238.29L52.65,237.06L63.18,229.3L73.71,216.87L84.24,215.14L94.78,201.55L105.31,178.06L115.84,205.53L126.37,169.5L136.9,189.17L147.43,144.98L157.96,145.49L168.49,158.52L179.02,120.08L189.55,104.18L200.08,112.29L210.61,81.02L221.14,145.92L231.67,107.05L242.2,95.74L252.73,102.72L263.27,90.91L273.8,116.91L284.33,44.24L294.86,88L305.39,127.61L315.92,141.82L326.45,102.95L336.98,60.34L347.51,80.53L358.04,97.82L368.57,62.13L379.1,44.66L389.63,72.96L400.16,98.96L410.69,63.37L421.22,80.59L431.76,58.7L442.29,93.16L452.82,44.57L463.35,43.77L473.88,103.46L484.41,121.07L505.47,41.23L516,54.49L516,167.21L505.47,130.82L484.41,170.98L473.88,169.76L463.35,137.75L452.82,165.68L442.29,180.84L431.76,145.39L421.22,173.7L410.69,147.55L400.16,193.31L389.63,187.6L379.1,164.16L368.57,164.08L358.04,184.54L347.51,188.4L336.98,190.75L326.45,222.13L315.92,221.02L305.39,190.86L294.86,193.48L284.33,157.87L273.8,216.43L263.27,195.64L252.73,213.88L242.2,186.74L231.67,197.33L221.14,196.44L210.61,159.84L200.08,221.92L189.55,189.74L179.02,182.54L168.49,209.83L157.96,227.81L147.43,199.47L136.9,220.79L126.37,235.39L115.84,230.19L105.31,212.85L94.78,229.66L84.24,239.08L73.71,245.05L63.18,244.84L52.65,254.03L42.12,252.81L31.59,253.82L21.06,253.24L10.53,253.87L0,256.5Z" style="fill: rgb(0, 85, 135); fill-opacity: 0.1; stroke-width: 0;"/></g></g><g class="errorbars"/><g class="lines"><path class="js-line" d="M0,256.5L10.53,253.87L21.06,253.24L31.59,253.82L42.12,252.81L52.65,254.03L63.18,244.84L73.71,245.05L84.24,239.08L94.78,229.66L105.31,212.85L115.84,230.19L126.37,235.39L136.9,220.79L147.43,199.47L157.96,227.81L168.49,209.83L179.02,182.54L189.55,189.74L200.08,221.92L210.61,159.84L221.14,196.44L231.67,197.33L242.2,186.74L252.73,213.88L263.27,195.64L273.8,216.43L284.33,157.87L294.86,193.48L305.39,190.86L315.92,221.02L326.45,222.13L336.98,190.75L347.51,188.4L358.04,184.54L368.57,164.08L379.1,164.16L389.63,187.6L400.16,193.31L410.69,147.55L421.22,173.7L431.76,145.39L442.29,180.84L452.82,165.68L463.35,137.75L473.88,169.76L484.41,170.98L505.47,130.82L516,167.21" style="vector-effect: non-scaling-stroke; fill: none; stroke: rgb(0, 85, 135); stroke-opacity: 0.2; stroke-width: 1px; opacity: 1;"/></g><g class="points"/><g class="text"/></g><g class="trace scatter trace894a8d" style="stroke-miterlimit: 2;"><g class="fills"/><g class="errorbars"/><g class="lines"><path class="js-line" d="M0,239.33L10.53,239.21L21.06,243.92L31.59,232.98L42.12,238.29L52.65,237.06L63.18,229.3L73.71,216.87L84.24,215.14L94.78,201.55L105.31,178.06L115.84,205.53L126.37,169.5L136.9,189.17L147.43,144.98L157.96,145.49L168.49,158.52L179.02,120.08L189.55,104.18L200.08,112.29L210.61,81.02L221.14,145.92L231.67,107.05L242.2,95.74L252.73,102.72L263.27,90.91L273.8,116.91L284.33,44.24L294.86,88L305.39,127.61L315.92,141.82L326.45,102.95L336.98,60.34L347.51,80.53L358.04,97.82L368.57,62.13L379.1,44.66L389.63,72.96L400.16,98.96L410.69,63.37L421.22,80.59L431.76,58.7L442.29,93.16L452.82,44.57L463.35,43.77L473.88,103.46L484.41,121.07L505.47,41.23L516,54.49" style="vector-effect: non-scaling-stroke; fill: none; stroke: rgb(0, 85, 135); stroke-opacity: 0.2; stroke-width: 1px; opacity: 1;"/></g><g class="points"/><g class="text"/></g><g class="trace scatter tracec7e89e" style="stroke-miterlimit: 2; opacity: 1;"><g class="fills"/><g class="errorbars"/><g class="lines"><path class="js-line" d="M0,247.92L10.53,246.54L21.06,248.58L31.59,243.4L42.12,245.55L52.65,245.55L63.18,237.07L73.71,230.96L84.24,227.11L94.78,215.6L105.31,195.46L115.84,217.86L126.37,202.45L136.9,204.98L147.43,172.23L157.96,186.65L168.49,184.17L179.02,151.31L189.55,146.96L200.08,167.11L210.61,120.43L221.14,171.18L231.67,152.19L242.2,141.24L252.73,158.3L263.27,143.27L273.8,166.67L284.33,101.05L294.86,140.74L305.39,159.24L315.92,181.42L326.45,162.54L336.98,125.55L347.51,134.47L358.04,141.18L368.57,113.11L379.1,104.41L389.63,130.28L400.16,146.14L410.69,105.46L421.22,127.14L431.76,102.04L442.29,137L452.82,105.13L463.35,90.76L473.88,136.61L484.41,146.03L505.47,86.03L516,110.85" style="vector-effect: non-scaling-stroke; fill: none; stroke: rgb(0, 85, 135); stroke-opacity: 1; stroke-width: 1.4px; opacity: 1;"/></g><g class="points"/><g class="text"/></g><g class="trace scatter trace3b4751" style="stroke-miterlimit: 2;"><g class="fills"><g><path class="js-fill" d="M0,247.11L10.53,239.68L21.06,237.81L31.59,243.18L42.12,236.72L52.65,214.66L63.18,220.8L73.71,194.93L84.24,200.07L94.78,178.53L105.31,181.21L115.84,154.8L126.37,168.42L136.9,183.24L147.43,151.31L157.96,117.46L168.49,135.88L179.02,153.4L189.55,114.76L200.08,90.68L210.61,99.43L221.14,115.91L231.67,60.7L242.2,112.43L252.73,61.52L263.27,47.64L273.8,75.55L284.33,89.13L294.86,50.02L315.92,18.26L326.45,97.74L336.98,29.65L347.51,44.85L358.04,30.67L368.57,21.02L379.1,36.76L389.63,42.91L400.16,30.24L410.69,13.5L421.22,25.19L431.76,47.58L442.29,48.25L452.82,74.35L463.35,44.41L473.88,28.29L484.41,28.62L494.94,54.58L505.47,28.1L516,48.29L516,152.27L505.47,128.76L494.94,135.63L484.41,121.19L473.88,81.67L463.35,155.38L452.82,153.95L442.29,129.09L431.76,120.84L421.22,109.53L410.69,106.48L400.16,110.55L389.63,101.83L379.1,115.03L368.57,113.27L358.04,144.58L347.51,115.53L336.98,97.26L326.45,196.41L315.92,126.93L305.39,114.16L294.86,176.19L284.33,189.27L273.8,166.08L263.27,130.25L252.73,161.5L242.2,190.3L231.67,152.09L221.14,200.14L210.61,202.75L200.08,204.79L189.55,214.61L179.02,225.63L168.49,197.34L157.96,181.08L136.9,227.16L126.37,229.53L115.84,223.67L105.31,234.8L94.78,250.03L84.24,242.37L73.71,236.05L63.18,251.14L42.12,249.53L31.59,252.76L21.06,253.51L10.53,255.28L0,255.55Z" style="fill: rgb(115, 194, 251); fill-opacity: 0.1; stroke-width: 0;"/></g></g><g class="errorbars"/><g class="lines"><path class="js-line" d="M0,255.55L10.53,255.28L21.06,253.51L31.59,252.76L42.12,249.53L63.18,251.14L73.71,236.05L84.24,242.37L94.78,250.03L105.31,234.8L115.84,223.67L126.37,229.53L136.9,227.16L157.96,181.08L168.49,197.34L179.02,225.63L189.55,214.61L200.08,204.79L210.61,202.75L221.14,200.14L231.67,152.09L242.2,190.3L252.73,161.5L263.27,130.25L273.8,166.08L284.33,189.27L294.86,176.19L305.39,114.16L315.92,126.93L326.45,196.41L336.98,97.26L347.51,115.53L358.04,144.58L368.57,113.27L379.1,115.03L389.63,101.83L400.16,110.55L410.69,106.48L421.22,109.53L431.76,120.84L442.29,129.09L452.82,153.95L463.35,155.38L473.88,81.67L484.41,121.19L494.94,135.63L505.47,128.76L516,152.27" style="vector-effect: non-scaling-stroke; fill: none; stroke: rgb(115, 194, 251); stroke-opacity: 0.2; stroke-width: 1px; opacity: 1;"/></g><g class="points"/><g class="text"/></g><g class="trace scatter trace6d6411" style="stroke-miterlimit: 2;"><g class="fills"/><g class="errorbars"/><g class="lines"><path class="js-line" d="M0,247.11L10.53,239.68L21.06,237.81L31.59,243.18L42.12,236.72L52.65,214.66L63.18,220.8L73.71,194.93L84.24,200.07L94.78,178.53L105.31,181.21L115.84,154.8L126.37,168.42L136.9,183.24L147.43,151.31L157.96,117.46L168.49,135.88L179.02,153.4L189.55,114.76L200.08,90.68L210.61,99.43L221.14,115.91L231.67,60.7L242.2,112.43L252.73,61.52L263.27,47.64L273.8,75.55L284.33,89.13L294.86,50.02L315.92,18.26L326.45,97.74L336.98,29.65L347.51,44.85L358.04,30.67L368.57,21.02L379.1,36.76L389.63,42.91L400.16,30.24L410.69,13.5L421.22,25.19L431.76,47.58L442.29,48.25L452.82,74.35L463.35,44.41L473.88,28.29L484.41,28.62L494.94,54.58L505.47,28.1L516,48.29" style="vector-effect: non-scaling-stroke; fill: none; stroke: rgb(115, 194, 251); stroke-opacity: 0.2; stroke-width: 1px; opacity: 1;"/></g><g class="points"/><g class="text"/></g><g class="trace scatter traceb186e2" style="stroke-miterlimit: 2; opacity: 1;"><g class="fills"/><g class="errorbars"/><g class="lines"><path class="js-line" d="M0,251.33L10.53,247.48L21.06,245.66L31.59,247.97L42.12,243.13L52.65,232.5L63.18,235.97L73.71,215.49L84.24,221.22L105.31,208.01L115.84,189.24L126.37,198.98L136.9,205.2L157.96,149.27L168.49,166.61L179.02,189.51L189.55,164.69L200.08,147.73L210.61,151.09L221.14,158.03L231.67,106.39L242.2,151.36L252.73,111.51L263.27,88.94L273.8,120.81L284.33,139.2L294.86,113.11L305.39,74.03L315.92,72.59L326.45,147.07L336.98,63.46L347.51,80.19L358.04,87.62L368.57,67.14L379.1,75.9L389.63,72.37L400.16,70.39L410.69,59.99L421.22,67.36L431.76,84.21L442.29,88.67L452.82,114.15L463.35,99.9L473.88,54.98L484.41,74.91L494.94,95.11L505.47,78.43L516,100.28" style="vector-effect: non-scaling-stroke; fill: none; stroke: rgb(115, 194, 251); stroke-opacity: 1; stroke-width: 1.4px; opacity: 1;"/></g><g class="points"/><g class="text"/></g><g class="trace scatter tracec48308" style="stroke-miterlimit: 2;"><g class="fills"><g><path class="js-fill" d="M0,134.59L10.53,135.64L21.06,107.96L31.59,148.57L42.12,162.31L52.65,151.71L63.18,183.08L73.71,174.6L84.24,189.1L94.78,194.05L105.31,184.14L115.84,151.99L126.37,109.33L136.9,129.57L147.43,169.87L157.96,200.3L168.49,204.25L179.02,195.83L189.55,178.51L200.08,171.46L210.61,168.64L221.14,39.62L231.67,40.72L252.73,40.72L263.27,32.12L273.8,21.36L284.33,103.44L294.86,41.4L305.39,39.69L315.92,17.69L326.45,41.56L336.98,31.48L347.51,40.72L452.82,40.72L463.35,32.09L473.88,40.72L484.41,40.72L516,40.72L516,40.72L484.41,40.72L473.88,40.72L463.35,69.39L452.82,40.72L347.51,40.72L336.98,61.19L326.45,69.39L315.92,98.43L305.39,130.16L294.86,150.25L284.33,180.35L273.8,84.41L263.27,59.79L252.73,40.72L231.67,40.72L221.14,170.64L210.61,193.65L200.08,198.87L189.55,187.74L179.02,202.68L168.49,208.58L157.96,207.89L147.43,201.33L136.9,193.64L126.37,175.23L115.84,214.7L105.31,203.14L94.78,205.89L84.24,198.95L73.71,200.13L63.18,199.03L52.65,193.73L42.12,186.22L31.59,176.95L21.06,181.34L10.53,173.25L0,207.56Z" style="fill: rgb(254, 127, 156); fill-opacity: 0.1; stroke-width: 0;"/></g></g><g class="errorbars"/><g class="lines"><path class="js-line" d="M0,207.56L10.53,173.25L21.06,181.34L31.59,176.95L42.12,186.22L52.65,193.73L63.18,199.03L73.71,200.13L84.24,198.95L94.78,205.89L105.31,203.14L115.84,214.7L126.37,175.23L136.9,193.64L147.43,201.33L157.96,207.89L168.49,208.58L179.02,202.68L189.55,187.74L200.08,198.87L210.61,193.65L221.14,170.64L231.67,40.72L252.73,40.72L263.27,59.79L273.8,84.41L284.33,180.35L294.86,150.25L305.39,130.16L315.92,98.43L326.45,69.39L336.98,61.19L347.51,40.72L452.82,40.72L463.35,69.39L473.88,40.72L484.41,40.72L516,40.72" style="vector-effect: non-scaling-stroke; fill: none; stroke: rgb(254, 127, 156); stroke-opacity: 0.2; stroke-width: 1px; opacity: 1;"/></g><g class="points"/><g class="text"/></g><g class="trace scatter traceb85ebe" style="stroke-miterlimit: 2;"><g class="fills"/><g class="errorbars"/><g class="lines"><path class="js-line" d="M0,134.59L10.53,135.64L21.06,107.96L31.59,148.57L42.12,162.31L52.65,151.71L63.18,183.08L73.71,174.6L84.24,189.1L94.78,194.05L105.31,184.14L115.84,151.99L126.37,109.33L136.9,129.57L147.43,169.87L157.96,200.3L168.49,204.25L179.02,195.83L189.55,178.51L200.08,171.46L210.61,168.64L221.14,39.62L231.67,40.72L252.73,40.72L263.27,32.12L273.8,21.36L284.33,103.44L294.86,41.4L305.39,39.69L315.92,17.69L326.45,41.56L336.98,31.48L347.51,40.72L452.82,40.72L463.35,32.09L473.88,40.72L484.41,40.72L516,40.72" style="vector-effect: non-scaling-stroke; fill: none; stroke: rgb(254, 127, 156); stroke-opacity: 0.2; stroke-width: 1px; opacity: 1;"/></g><g class="points"/><g class="text"/></g><g class="trace scatter trace342011" style="stroke-miterlimit: 2; opacity: 1;"><g class="fills"/><g class="errorbars"/><g class="lines"><path class="js-line" d="M0,171.07L10.53,154.45L21.06,144.65L31.59,162.76L42.12,174.26L52.65,172.72L63.18,191.05L73.71,187.36L84.24,194.03L94.78,199.97L105.31,193.64L115.84,183.35L126.37,142.28L136.9,161.6L147.43,185.6L157.96,204.1L168.49,206.41L179.02,199.25L189.55,183.13L200.08,185.16L210.61,181.14L221.14,105.13L231.67,40.72L252.73,40.72L263.27,45.95L273.8,52.89L284.33,141.9L294.86,95.82L305.39,84.92L315.92,58.06L326.45,55.47L336.98,46.34L347.51,40.72L452.82,40.72L463.35,50.74L473.88,40.72L484.41,40.72L516,40.72" style="vector-effect: non-scaling-stroke; fill: none; stroke: rgb(254, 127, 156); stroke-opacity: 1; stroke-width: 1.4px; opacity: 1;"/></g><g class="points"/><g class="text"/></g><g class="trace scatter trace98d229" style="stroke-miterlimit: 2;"><g class="fills"><g><path class="js-fill" d="M0,104.13L10.53,92.07L21.06,119.91L31.59,132.86L42.12,135.96L52.65,138.8L63.18,155.07L73.71,162.94L84.24,165.91L94.78,174.93L105.31,187.79L115.84,185.19L126.37,146.32L136.9,127.84L147.43,128.02L157.96,109.67L168.49,25.92L179.02,112.12L189.55,132.04L200.08,168.09L210.61,183.4L221.14,172.45L231.67,126.25L242.2,123.05L252.73,110.53L263.27,94.91L273.8,40.72L294.86,40.72L305.39,36.83L315.92,40.72L326.45,29.58L336.98,130.37L347.51,27.95L358.04,40.72L368.57,40.72L484.41,40.72L494.94,27.09L505.47,169.71L516,60.62L516,198.73L505.47,182.12L494.94,146.06L484.41,40.72L368.57,40.72L358.04,40.72L347.51,69.02L336.98,156.61L326.45,84.78L315.92,40.72L305.39,49.35L294.86,40.72L284.33,40.72L273.8,40.72L263.27,150.46L252.73,199.14L242.2,138.4L231.67,149.62L221.14,176.19L210.61,187.81L200.08,176.26L189.55,137.34L179.02,143.16L168.49,147.13L157.96,152L147.43,171.96L136.9,189.97L126.37,184.59L115.84,195.48L105.31,194.32L94.78,200.68L84.24,203.65L63.18,184.32L52.65,188.37L42.12,178.11L31.59,175.82L21.06,178.75L10.53,162.11L0,170.2Z" style="fill: rgb(248, 136, 112); fill-opacity: 0.1; stroke-width: 0;"/></g></g><g class="errorbars"/><g class="lines"><path class="js-line" d="M0,170.2L10.53,162.11L21.06,178.75L31.59,175.82L42.12,178.11L52.65,188.37L63.18,184.32L84.24,203.65L94.78,200.68L105.31,194.32L115.84,195.48L126.37,184.59L136.9,189.97L147.43,171.96L157.96,152L168.49,147.13L179.02,143.16L189.55,137.34L200.08,176.26L210.61,187.81L221.14,176.19L231.67,149.62L242.2,138.4L252.73,199.14L263.27,150.46L273.8,40.72L284.33,40.72L294.86,40.72L305.39,49.35L315.92,40.72L326.45,84.78L336.98,156.61L347.51,69.02L358.04,40.72L368.57,40.72L484.41,40.72L494.94,146.06L505.47,182.12L516,198.73" style="vector-effect: non-scaling-stroke; fill: none; stroke: rgb(248, 136, 112); stroke-opacity: 0.2; stroke-width: 1px; opacity: 1;"/></g><g class="points"/><g class="text"/></g><g class="trace scatter tracecb536a" style="stroke-miterlimit: 2;"><g class="fills"/><g class="errorbars"/><g class="lines"><path class="js-line" d="M0,104.13L10.53,92.07L21.06,119.91L31.59,132.86L42.12,135.96L52.65,138.8L63.18,155.07L73.71,162.94L84.24,165.91L94.78,174.93L105.31,187.79L115.84,185.19L126.37,146.32L136.9,127.84L147.43,128.02L157.96,109.67L168.49,25.92L179.02,112.12L189.55,132.04L200.08,168.09L210.61,183.4L221.14,172.45L231.67,126.25L242.2,123.05L252.73,110.53L263.27,94.91L273.8,40.72L294.86,40.72L305.39,36.83L315.92,40.72L326.45,29.58L336.98,130.37L347.51,27.95L358.04,40.72L368.57,40.72L484.41,40.72L494.94,27.09L505.47,169.71L516,60.62" style="vector-effect: non-scaling-stroke; fill: none; stroke: rgb(248, 136, 112); stroke-opacity: 0.2; stroke-width: 1px; opacity: 1;"/></g><g class="points"/><g class="text"/></g><g class="trace scatter trace9acc7e" style="stroke-miterlimit: 2; opacity: 1;"><g class="fills"/><g class="errorbars"/><g class="lines"><path class="js-line" d="M0,137.16L10.53,127.09L21.06,149.33L31.59,154.34L42.12,157.03L63.18,169.7L73.71,178.56L84.24,184.78L94.78,187.81L105.31,191.05L115.84,190.34L126.37,165.46L136.9,158.91L147.43,149.99L157.96,130.83L168.49,86.52L179.02,127.64L189.55,134.69L200.08,172.17L210.61,185.6L221.14,174.32L231.67,137.93L242.2,130.72L252.73,154.83L263.27,122.69L273.8,40.72L284.33,40.72L294.86,40.72L305.39,43.09L315.92,40.72L326.45,57.18L336.98,143.49L347.51,48.48L358.04,40.72L368.57,40.72L484.41,40.72L494.94,86.58L505.47,175.92L516,129.68" style="vector-effect: non-scaling-stroke; fill: none; stroke: rgb(248, 136, 112); stroke-opacity: 1; stroke-width: 1.4px; opacity: 1;"/></g><g class="points"/><g class="text"/></g></g></g><g class="overplot"/><path class="xlines-above crisp" d="M0,0" style="fill: none;"/><path class="ylines-above crisp" d="M0,0" style="fill: none;"/><g class="overlines-above"/><g class="xaxislayer-above"><g class="xtick"><text text-anchor="middle" x="0" y="383" transform="translate(174.78,0)" style="font-family: 'Open Sans', verdana, arial, sans-serif; font-size: 12px; fill: rgb(68, 68, 68); fill-opacity: 1; white-space: pre;">20k</text></g><g class="xtick"><text text-anchor="middle" x="0" y="383" transform="translate(280.08000000000004,0)" style="font-family: 'Open Sans', verdana, arial, sans-serif; font-size: 12px; fill: rgb(68, 68, 68); fill-opacity: 1; white-space: pre;">40k</text></g><g class="xtick"><text text-anchor="middle" x="0" y="383" transform="translate(385.39,0)" style="font-family: 'Open Sans', verdana, arial, sans-serif; font-size: 12px; fill: rgb(68, 68, 68); fill-opacity: 1; white-space: pre;">60k</text></g><g class="xtick"><text text-anchor="middle" x="0" y="383" transform="translate(490.69,0)" style="font-family: 'Open Sans', verdana, arial, sans-serif; font-size: 12px; fill: rgb(68, 68, 68); fill-opacity: 1; white-space: pre;">80k</text></g><g class="xtick"><text text-anchor="middle" x="0" y="383" transform="translate(596,0)" style="font-family: 'Open Sans', verdana, arial, sans-serif; font-size: 12px; fill: rgb(68, 68, 68); fill-opacity: 1; white-space: pre;">100k</text></g></g><g class="yaxislayer-above"><g class="ytick"><text text-anchor="end" x="79" y="4.199999999999999" transform="translate(0,360.91)" style="font-family: 'Open Sans', verdana, arial, sans-serif; font-size: 12px; fill: rgb(68, 68, 68); fill-opacity: 1; white-space: pre;">0</text></g><g class="ytick"><text text-anchor="end" x="79" y="4.199999999999999" transform="translate(0,316.87)" style="font-family: 'Open Sans', verdana, arial, sans-serif; font-size: 12px; fill: rgb(68, 68, 68); fill-opacity: 1; white-space: pre;">100</text></g><g class="ytick"><text text-anchor="end" x="79" y="4.199999999999999" transform="translate(0,272.83000000000004)" style="font-family: 'Open Sans', verdana, arial, sans-serif; font-size: 12px; fill: rgb(68, 68, 68); fill-opacity: 1; white-space: pre;">200</text></g><g class="ytick"><text text-anchor="end" x="79" y="4.199999999999999" transform="translate(0,228.8)" style="font-family: 'Open Sans', verdana, arial, sans-serif; font-size: 12px; fill: rgb(68, 68, 68); fill-opacity: 1; white-space: pre;">300</text></g><g class="ytick"><text text-anchor="end" x="79" y="4.199999999999999" transform="translate(0,184.76)" style="font-family: 'Open Sans', verdana, arial, sans-serif; font-size: 12px; fill: rgb(68, 68, 68); fill-opacity: 1; white-space: pre;">400</text></g><g class="ytick"><text text-anchor="end" x="79" y="4.199999999999999" transform="translate(0,140.72)" style="font-family: 'Open Sans', verdana, arial, sans-serif; font-size: 12px; fill: rgb(68, 68, 68); fill-opacity: 1; white-space: pre;">500</text></g></g><g class="overaxes-above"/></g></g><g class="polarlayer"/><g class="ternarylayer"/><g class="geolayer"/><g class="pielayer"/><g class="glimages"/><defs id="topdefs-cf42f9"><g class="clips"/><clipPath id="legendcf42f9"><rect width="82" height="86" x="0" y="0"/></clipPath></defs><g class="layer-above"><g class="imagelayer"/><g class="shapelayer"/></g><g class="infolayer"><g class="legend" pointer-events="all" transform="translate(606.32, 100)"><rect class="bg" shape-rendering="crispEdges" width="82" height="86" x="0" y="0" style="stroke: rgb(68, 68, 68); stroke-opacity: 1; fill: rgb(255, 255, 255); fill-opacity: 1; stroke-width: 0px;"/><g class="scrollbox" transform="translate(0, 0)" clip-path="url(#legendcf42f9)"><g class="groups"><g class="traces" transform="translate(0, 14.5)" style="opacity: 1;"><g class="layers" style="opacity: 1;"><g class="legendfill"/><g class="legendlines"><path class="js-line" d="M5,0h30" style="fill: none; stroke: rgb(248, 136, 112); stroke-opacity: 1; stroke-width: 1.4px;"/></g><g class="legendsymbols"><g class="legendpoints"/></g></g><text class="legendtext user-select-none" text-anchor="start" x="40" y="4.680000000000001" style="font-family: 'Open Sans', verdana, arial, sans-serif; font-size: 12px; fill: rgb(68, 68, 68); fill-opacity: 1; white-space: pre;">DDQN</text><rect class="legendtoggle" pointer-events="all" x="0" y="-9.5" width="122" height="19" style="cursor: pointer; fill: rgb(0, 0, 0); fill-opacity: 0;"/></g><g class="traces" transform="translate(0, 33.5)" style="opacity: 1;"><g class="layers" style="opacity: 1;"><g class="legendfill"/><g class="legendlines"><path class="js-line" d="M5,0h30" style="fill: none; stroke: rgb(254, 127, 156); stroke-opacity: 1; stroke-width: 1.4px;"/></g><g class="legendsymbols"><g class="legendpoints"/></g></g><text class="legendtext user-select-none" text-anchor="start" x="40" y="4.680000000000001" style="font-family: 'Open Sans', verdana, arial, sans-serif; font-size: 12px; fill: rgb(68, 68, 68); fill-opacity: 1; white-space: pre;">DQN</text><rect class="legendtoggle" pointer-events="all" x="0" y="-9.5" width="122" height="19" style="cursor: pointer; fill: rgb(0, 0, 0); fill-opacity: 0;"/></g><g class="traces" transform="translate(0, 52.5)" style="opacity: 1;"><g class="layers" style="opacity: 1;"><g class="legendfill"/><g class="legendlines"><path class="js-line" d="M5,0h30" style="fill: none; stroke: rgb(115, 194, 251); stroke-opacity: 1; stroke-width: 1.4px;"/></g><g class="legendsymbols"><g class="legendpoints"/></g></g><text class="legendtext user-select-none" text-anchor="start" x="40" y="4.680000000000001" style="font-family: 'Open Sans', verdana, arial, sans-serif; font-size: 12px; fill: rgb(68, 68, 68); fill-opacity: 1; white-space: pre;">A2C</text><rect class="legendtoggle" pointer-events="all" x="0" y="-9.5" width="122" height="19" style="cursor: pointer; fill: rgb(0, 0, 0); fill-opacity: 0;"/></g><g class="traces" transform="translate(0, 71.5)" style="opacity: 1;"><g class="layers" style="opacity: 1;"><g class="legendfill"/><g class="legendlines"><path class="js-line" d="M5,0h30" style="fill: none; stroke: rgb(0, 85, 135); stroke-opacity: 1; stroke-width: 1.4px;"/></g><g class="legendsymbols"><g class="legendpoints"/></g></g><text class="legendtext user-select-none" text-anchor="start" x="40" y="4.680000000000001" style="font-family: 'Open Sans', verdana, arial, sans-serif; font-size: 12px; fill: rgb(68, 68, 68); fill-opacity: 1; white-space: pre;">PG</text><rect class="legendtoggle" pointer-events="all" x="0" y="-9.5" width="122" height="19" style="cursor: pointer; fill: rgb(0, 0, 0); fill-opacity: 0;"/></g></g></g><rect class="scrollbar" rx="20" ry="3" width="0" height="0" x="0" y="0" style="fill: rgb(128, 139, 164); fill-opacity: 1;"/></g><g class="g-gtitle"><text class="gtitle" x="350" y="50" text-anchor="middle" dy="0em" style="font-family: 'Open Sans', verdana, arial, sans-serif; font-size: 17px; fill: rgb(68, 68, 68); opacity: 1; font-weight: normal; white-space: pre;">CartPole-v1</text></g><g class="g-xtitle"><text class="xtitle" x="338" y="422" text-anchor="middle" style="font-family: 'Open Sans', verdana, arial, sans-serif; font-size: 14px; fill: rgb(68, 68, 68); opacity: 1; font-weight: normal; white-space: pre;">Timesteps</text></g><g class="g-ytitle"><text class="ytitle" transform="rotate(-90,42,235)" x="42" y="235" text-anchor="middle" style="font-family: 'Open Sans', verdana, arial, sans-serif; font-size: 14px; fill: rgb(68, 68, 68); opacity: 1; font-weight: normal; white-space: pre;">Episodic Reward</text></g></g></svg>