<svg class="main-svg" xmlns="http://www.w3.org/2000/svg" xmlns:xlink="http://www.w3.org/1999/xlink" width="700" height="450" style="" viewBox="0 0 700 450"><rect x="0" y="0" width="700" height="450" style="fill: rgb(255, 255, 255); fill-opacity: 1;"/><defs id="defs-5af0f3"><g class="clips"><clipPath id="clip5af0f3xyplot" class="plotclip"><rect width="517" height="270"/></clipPath><clipPath class="axesclip" id="clip5af0f3x"><rect x="80" y="0" width="517" height="450"/></clipPath><clipPath class="axesclip" id="clip5af0f3y"><rect x="0" y="100" width="700" height="270"/></clipPath><clipPath class="axesclip" id="clip5af0f3xy"><rect x="80" y="100" width="517" height="270"/></clipPath></g><g class="gradients"/></defs><g class="bglayer"/><g class="layer-below"><g class="imagelayer"/><g class="shapelayer"/></g><g class="cartesianlayer"><g class="subplot xy"><g class="layer-subplot"><g class="shapelayer"/><g class="imagelayer"/></g><g class="gridlayer"><g class="x"><path class="xgrid crisp" transform="translate(199.31,0)" d="M0,100v270" style="stroke: rgb(238, 238, 238); stroke-opacity: 1; stroke-width: 1px;"/><path class="xgrid crisp" transform="translate(331.87,0)" d="M0,100v270" style="stroke: rgb(238, 238, 238); stroke-opacity: 1; stroke-width: 1px;"/><path class="xgrid crisp" transform="translate(464.44,0)" d="M0,100v270" style="stroke: rgb(238, 238, 238); stroke-opacity: 1; stroke-width: 1px;"/></g><g class="y"><path class="ygrid crisp" transform="translate(0,309.15999999999997)" d="M80,0h517" style="stroke: rgb(238, 238, 238); stroke-opacity: 1; stroke-width: 1px;"/><path class="ygrid crisp" transform="translate(0,244.92)" d="M80,0h517" style="stroke: rgb(238, 238, 238); stroke-opacity: 1; stroke-width: 1px;"/><path class="ygrid crisp" transform="translate(0,180.69)" d="M80,0h517" style="stroke: rgb(238, 238, 238); stroke-opacity: 1; stroke-width: 1px;"/></g></g><g class="zerolinelayer"><path class="yzl zl crisp" transform="translate(0,116.45)" d="M80,0h517" style="stroke: rgb(68, 68, 68); stroke-opacity: 1; stroke-width: 1px;"/></g><path class="xlines-below"/><path class="ylines-below"/><g class="overlines-below"/><g class="xaxislayer-below"/><g class="yaxislayer-below"/><g class="overaxes-below"/><g class="plot" transform="translate(80, 100)" clip-path="url(#clip5af0f3xyplot)"><g class="scatterlayer mlayer"><g class="trace scatter trace9ee27c" style="stroke-miterlimit: 2;"><g class="fills"><g><path class="js-fill" d="M0,155.82L13.26,175.77L26.51,226.37L39.77,210.13L53.03,183L66.28,186.32L79.54,191.51L92.79,192.66L106.05,94.2L119.31,63.96L132.56,67.92L159.08,78.42L172.33,83.28L185.59,81.23L198.85,25.97L212.1,48.03L225.36,29.22L238.62,50.06L251.87,21.46L265.13,13.5L278.38,21.16L291.64,28.95L304.9,26.4L318.15,41.37L331.41,31.23L344.67,32.42L357.92,29.55L371.18,23.04L384.44,25.2L397.69,34.03L410.95,22.92L424.21,24.76L437.46,21.17L450.72,29.45L463.97,24.91L477.23,18.21L490.49,24.44L503.74,30.03L517,25.43L517,46.03L503.74,45.38L490.49,43.41L477.23,49.32L463.97,43.39L450.72,41.98L437.46,43.26L424.21,50.93L410.95,52.27L384.44,50.19L371.18,49.32L357.92,42.87L344.67,63.35L331.41,52.09L318.15,60.72L304.9,53.33L291.64,58.63L278.38,51.26L265.13,43.03L251.87,43.37L238.62,75.82L225.36,58.88L212.1,72.69L198.85,62.74L185.59,106.56L159.08,99.47L145.82,111.14L132.56,88.39L119.31,100.03L106.05,107.85L92.79,217.99L79.54,216.21L66.28,212.63L53.03,213.2L39.77,216.12L26.51,233.86L13.26,213.32L0,225.26Z" style="fill: rgb(200, 78, 0); fill-opacity: 0.1; stroke-width: 0;"/></g></g><g class="errorbars"/><g class="lines"><path class="js-line" d="M0,225.26L13.26,213.32L26.51,233.86L39.77,216.12L53.03,213.2L66.28,212.63L79.54,216.21L92.79,217.99L106.05,107.85L119.31,100.03L132.56,88.39L145.82,111.14L159.08,99.47L185.59,106.56L198.85,62.74L212.1,72.69L225.36,58.88L238.62,75.82L251.87,43.37L265.13,43.03L278.38,51.26L291.64,58.63L304.9,53.33L318.15,60.72L331.41,52.09L344.67,63.35L357.92,42.87L371.18,49.32L384.44,50.19L410.95,52.27L424.21,50.93L437.46,43.26L450.72,41.98L463.97,43.39L477.23,49.32L490.49,43.41L503.74,45.38L517,46.03" style="vector-effect: non-scaling-stroke; fill: none; stroke: rgb(200, 78, 0); stroke-opacity: 0.2; stroke-width: 1px; opacity: 1;"/></g><g class="points"/><g class="text"/></g><g class="trace scatter traceb3649d" style="stroke-miterlimit: 2;"><g class="fills"/><g class="errorbars"/><g class="lines"><path class="js-line" d="M0,155.82L13.26,175.77L26.51,226.37L39.77,210.13L53.03,183L66.28,186.32L79.54,191.51L92.79,192.66L106.05,94.2L119.31,63.96L132.56,67.92L159.08,78.42L172.33,83.28L185.59,81.23L198.85,25.97L212.1,48.03L225.36,29.22L238.62,50.06L251.87,21.46L265.13,13.5L278.38,21.16L291.64,28.95L304.9,26.4L318.15,41.37L331.41,31.23L344.67,32.42L357.92,29.55L371.18,23.04L384.44,25.2L397.69,34.03L410.95,22.92L424.21,24.76L437.46,21.17L450.72,29.45L463.97,24.91L477.23,18.21L490.49,24.44L503.74,30.03L517,25.43" style="vector-effect: non-scaling-stroke; fill: none; stroke: rgb(200, 78, 0); stroke-opacity: 0.2; stroke-width: 1px; opacity: 1;"/></g><g class="points"/><g class="text"/></g><g class="trace scatter tracec8fee5" style="stroke-miterlimit: 2; opacity: 1;"><g class="fills"/><g class="errorbars"/><g class="lines"><path class="js-line" d="M0,190.54L13.26,194.55L26.51,230.12L39.77,213.13L53.03,198.1L66.28,199.48L79.54,203.86L92.79,205.33L106.05,101.02L119.31,82L132.56,78.16L145.82,92.3L159.08,88.95L172.33,92.97L185.59,93.9L198.85,44.36L212.1,60.36L225.36,44.05L238.62,62.94L251.87,32.42L265.13,28.26L291.64,43.79L304.9,39.87L318.15,51.05L331.41,41.66L344.67,47.89L357.92,36.21L371.18,36.18L384.44,37.7L397.69,42.49L410.95,37.6L424.21,37.84L437.46,32.21L450.72,35.71L463.97,34.15L490.49,33.93L503.74,37.71L517,35.73" style="vector-effect: non-scaling-stroke; fill: none; stroke: rgb(200, 78, 0); stroke-opacity: 1; stroke-width: 1.4px; opacity: 1;"/></g><g class="points"/><g class="text"/></g><g class="trace scatter trace9c5763" style="stroke-miterlimit: 2;"><g class="fills"><g><path class="js-fill" d="M0,198.94L13.26,164.79L26.51,191.85L39.77,179.71L53.03,198.12L66.28,118.36L79.54,119.6L92.79,162.34L106.05,89.08L119.31,169.49L132.56,186.29L145.82,95.38L159.08,125.81L172.33,61.35L185.59,50.86L198.85,38.87L212.1,22.79L225.36,42.02L238.62,32.42L251.87,26.94L265.13,31.77L278.38,21.29L291.64,26.9L318.15,22.67L331.41,17.98L344.67,19.66L357.92,20.33L371.18,29.7L384.44,23.3L397.69,17.83L410.95,25.01L424.21,30.66L437.46,34.38L450.72,30.42L463.97,24.77L477.23,23.25L490.49,24.74L503.74,26.51L517,24.95L517,50.06L503.74,53.05L490.49,43.62L477.23,51.59L463.97,51.77L450.72,46.24L437.46,52.47L424.21,46.47L410.95,43.08L397.69,50.54L384.44,48.54L371.18,49.11L357.92,46.66L344.67,48.76L331.41,49.58L318.15,57.78L304.9,58.77L291.64,55.52L278.38,43.11L265.13,55.1L251.87,61.84L238.62,48.92L225.36,64.15L212.1,77.81L198.85,115.08L185.59,144.74L172.33,143.49L159.08,136.98L145.82,177.55L132.56,210.76L119.31,191.35L106.05,204.62L92.79,198.3L79.54,245.19L66.28,242.11L53.03,212.72L39.77,221.8L26.51,216.87L13.26,207.21L0,239.31Z" style="fill: rgb(232, 153, 35); fill-opacity: 0.1; stroke-width: 0;"/></g></g><g class="errorbars"/><g class="lines"><path class="js-line" d="M0,239.31L13.26,207.21L26.51,216.87L39.77,221.8L53.03,212.72L66.28,242.11L79.54,245.19L92.79,198.3L106.05,204.62L119.31,191.35L132.56,210.76L145.82,177.55L159.08,136.98L172.33,143.49L185.59,144.74L198.85,115.08L212.1,77.81L225.36,64.15L238.62,48.92L251.87,61.84L265.13,55.1L278.38,43.11L291.64,55.52L304.9,58.77L318.15,57.78L331.41,49.58L344.67,48.76L357.92,46.66L371.18,49.11L384.44,48.54L397.69,50.54L410.95,43.08L424.21,46.47L437.46,52.47L450.72,46.24L463.97,51.77L477.23,51.59L490.49,43.62L503.74,53.05L517,50.06" style="vector-effect: non-scaling-stroke; fill: none; stroke: rgb(232, 153, 35); stroke-opacity: 0.2; stroke-width: 1px; opacity: 1;"/></g><g class="points"/><g class="text"/></g><g class="trace scatter traced1df51" style="stroke-miterlimit: 2;"><g class="fills"/><g class="errorbars"/><g class="lines"><path class="js-line" d="M0,198.94L13.26,164.79L26.51,191.85L39.77,179.71L53.03,198.12L66.28,118.36L79.54,119.6L92.79,162.34L106.05,89.08L119.31,169.49L132.56,186.29L145.82,95.38L159.08,125.81L172.33,61.35L185.59,50.86L198.85,38.87L212.1,22.79L225.36,42.02L238.62,32.42L251.87,26.94L265.13,31.77L278.38,21.29L291.64,26.9L318.15,22.67L331.41,17.98L344.67,19.66L357.92,20.33L371.18,29.7L384.44,23.3L397.69,17.83L410.95,25.01L424.21,30.66L437.46,34.38L450.72,30.42L463.97,24.77L477.23,23.25L490.49,24.74L503.74,26.51L517,24.95" style="vector-effect: non-scaling-stroke; fill: none; stroke: rgb(232, 153, 35); stroke-opacity: 0.2; stroke-width: 1px; opacity: 1;"/></g><g class="points"/><g class="text"/></g><g class="trace scatter tracefb6b2c" style="stroke-miterlimit: 2; opacity: 1;"><g class="fills"/><g class="errorbars"/><g class="lines"><path class="js-line" d="M0,219.12L13.26,186L26.51,204.36L39.77,200.76L53.03,205.42L66.28,180.24L79.54,182.39L92.79,180.32L106.05,146.85L119.31,180.42L132.56,198.52L145.82,136.46L159.08,131.39L172.33,102.42L185.59,97.8L198.85,76.98L212.1,50.3L225.36,53.09L238.62,40.67L251.87,44.39L265.13,43.44L278.38,32.2L291.64,41.21L304.9,41.59L318.15,40.23L331.41,33.78L344.67,34.21L357.92,33.5L371.18,39.41L384.44,35.92L397.69,34.19L410.95,34.04L424.21,38.57L437.46,43.43L450.72,38.33L463.97,38.27L477.23,37.42L490.49,34.18L503.74,39.78L517,37.5" style="vector-effect: non-scaling-stroke; fill: none; stroke: rgb(232, 153, 35); stroke-opacity: 1; stroke-width: 1.4px; opacity: 1;"/></g><g class="points"/><g class="text"/></g><g class="trace scatter traced8a006" style="stroke-miterlimit: 2;"><g class="fills"><g><path class="js-fill" d="M0,173.74L13.26,168.05L26.51,202.57L39.77,204.17L53.03,131.52L66.28,194.82L79.54,199.32L92.79,182.69L106.05,159.79L119.31,78.13L132.56,43.17L145.82,20.9L159.08,33.72L172.33,27.22L185.59,37.12L198.85,22.59L212.1,44.06L225.36,15.61L238.62,35.63L251.87,38.36L265.13,35.06L278.38,26.97L291.64,30.93L304.9,29.49L318.15,33.72L331.41,25.3L344.67,24.99L357.92,27.69L371.18,24.58L397.69,18.74L410.95,36.81L424.21,29.39L437.46,24.94L450.72,37.05L463.97,24.49L477.23,24.58L490.49,21.47L503.74,15.43L517,16.32L517,42.7L503.74,45.09L490.49,34.69L477.23,44.33L463.97,40.54L450.72,55.96L437.46,50.24L424.21,42.43L410.95,54.02L397.69,45.69L384.44,45.8L371.18,43.32L357.92,63.71L344.67,51.25L331.41,50.74L318.15,57.98L304.9,52.5L291.64,45.77L278.38,57.16L265.13,50.55L251.87,61.96L238.62,77.21L225.36,83.06L212.1,127.68L198.85,81.86L185.59,90.23L172.33,58.05L159.08,54.2L145.82,58.9L132.56,206.65L119.31,214.57L106.05,221.6L92.79,203.87L79.54,215.45L66.28,211.3L53.03,187.34L39.77,234.07L26.51,256.5L13.26,236.54L0,222.19Z" style="fill: rgb(51, 152, 152); fill-opacity: 0.1; stroke-width: 0;"/></g></g><g class="errorbars"/><g class="lines"><path class="js-line" d="M0,222.19L13.26,236.54L26.51,256.5L39.77,234.07L53.03,187.34L66.28,211.3L79.54,215.45L92.79,203.87L106.05,221.6L119.31,214.57L132.56,206.65L145.82,58.9L159.08,54.2L172.33,58.05L185.59,90.23L198.85,81.86L212.1,127.68L225.36,83.06L238.62,77.21L251.87,61.96L265.13,50.55L278.38,57.16L291.64,45.77L304.9,52.5L318.15,57.98L331.41,50.74L344.67,51.25L357.92,63.71L371.18,43.32L384.44,45.8L397.69,45.69L410.95,54.02L424.21,42.43L437.46,50.24L450.72,55.96L463.97,40.54L477.23,44.33L490.49,34.69L503.74,45.09L517,42.7" style="vector-effect: non-scaling-stroke; fill: none; stroke: rgb(51, 152, 152); stroke-opacity: 0.2; stroke-width: 1px; opacity: 1;"/></g><g class="points"/><g class="text"/></g><g class="trace scatter trace9512e8" style="stroke-miterlimit: 2;"><g class="fills"/><g class="errorbars"/><g class="lines"><path class="js-line" d="M0,173.74L13.26,168.05L26.51,202.57L39.77,204.17L53.03,131.52L66.28,194.82L79.54,199.32L92.79,182.69L106.05,159.79L119.31,78.13L132.56,43.17L145.82,20.9L159.08,33.72L172.33,27.22L185.59,37.12L198.85,22.59L212.1,44.06L225.36,15.61L238.62,35.63L251.87,38.36L265.13,35.06L278.38,26.97L291.64,30.93L304.9,29.49L318.15,33.72L331.41,25.3L344.67,24.99L357.92,27.69L371.18,24.58L397.69,18.74L410.95,36.81L424.21,29.39L437.46,24.94L450.72,37.05L463.97,24.49L477.23,24.58L490.49,21.47L503.74,15.43L517,16.32" style="vector-effect: non-scaling-stroke; fill: none; stroke: rgb(51, 152, 152); stroke-opacity: 0.2; stroke-width: 1px; opacity: 1;"/></g><g class="points"/><g class="text"/></g><g class="trace scatter trace4c6a25" style="stroke-miterlimit: 2; opacity: 1;"><g class="fills"/><g class="errorbars"/><g class="lines"><path class="js-line" d="M0,197.96L13.26,202.3L26.51,229.53L39.77,219.12L53.03,159.43L66.28,203.06L79.54,207.39L92.79,193.28L106.05,190.7L119.31,146.35L132.56,124.91L145.82,39.9L159.08,43.96L172.33,42.64L185.59,63.67L198.85,52.23L212.1,85.87L225.36,49.34L238.62,56.42L251.87,50.16L265.13,42.81L278.38,42.07L291.64,38.35L304.9,41L318.15,45.85L331.41,38.02L344.67,38.12L357.92,45.7L371.18,33.95L384.44,33.9L397.69,32.21L410.95,45.41L424.21,35.91L437.46,37.59L450.72,46.5L463.97,32.52L477.23,34.45L490.49,28.08L503.74,30.26L517,29.51" style="vector-effect: non-scaling-stroke; fill: none; stroke: rgb(51, 152, 152); stroke-opacity: 1; stroke-width: 1.4px; opacity: 1;"/></g><g class="points"/><g class="text"/></g><g class="trace scatter traced444ab" style="stroke-miterlimit: 2;"><g class="fills"><g><path class="js-fill" d="M0,159.38L0,184.73Z" style="fill: rgb(153, 51, 153); fill-opacity: 0.1; stroke-width: 0;"/></g></g><g class="errorbars"/><g class="lines"/><g class="points"/><g class="text"/></g><g class="trace scatter trace5624b9" style="stroke-miterlimit: 2;"><g class="fills"/><g class="errorbars"/><g class="lines"/><g class="points"/><g class="text"/></g><g class="trace scatter trace575131" style="stroke-miterlimit: 2; opacity: 1;"><g class="fills"/><g class="errorbars"/><g class="lines"/><g class="points"/><g class="text"/></g></g></g><g class="overplot"/><path class="xlines-above crisp" d="M0,0" style="fill: none;"/><path class="ylines-above crisp" d="M0,0" style="fill: none;"/><g class="overlines-above"/><g class="xaxislayer-above"><g class="xtick"><text text-anchor="middle" x="0" y="383" transform="translate(199.31,0)" style="font-family: 'Open Sans', verdana, arial, sans-serif; font-size: 12px; fill: rgb(68, 68, 68); fill-opacity: 1; white-space: pre;">5k</text></g><g class="xtick"><text text-anchor="middle" x="0" y="383" transform="translate(331.87,0)" style="font-family: 'Open Sans', verdana, arial, sans-serif; font-size: 12px; fill: rgb(68, 68, 68); fill-opacity: 1; white-space: pre;">10k</text></g><g class="xtick"><text text-anchor="middle" x="0" y="383" transform="translate(464.44,0)" style="font-family: 'Open Sans', verdana, arial, sans-serif; font-size: 12px; fill: rgb(68, 68, 68); fill-opacity: 1; white-space: pre;">15k</text></g><g class="xtick"><text text-anchor="middle" x="0" y="383" transform="translate(597,0)" style="font-family: 'Open Sans', verdana, arial, sans-serif; font-size: 12px; fill: rgb(68, 68, 68); fill-opacity: 1; white-space: pre;">20k</text></g></g><g class="yaxislayer-above"><g class="ytick"><text text-anchor="end" x="79" y="4.199999999999999" transform="translate(0,309.15999999999997)" style="font-family: 'Open Sans', verdana, arial, sans-serif; font-size: 12px; fill: rgb(68, 68, 68); fill-opacity: 1; white-space: pre;">−1500</text></g><g class="ytick"><text text-anchor="end" x="79" y="4.199999999999999" transform="translate(0,244.92)" style="font-family: 'Open Sans', verdana, arial, sans-serif; font-size: 12px; fill: rgb(68, 68, 68); fill-opacity: 1; white-space: pre;">−1000</text></g><g class="ytick"><text text-anchor="end" x="79" y="4.199999999999999" transform="translate(0,180.69)" style="font-family: 'Open Sans', verdana, arial, sans-serif; font-size: 12px; fill: rgb(68, 68, 68); fill-opacity: 1; white-space: pre;">−500</text></g><g class="ytick"><text text-anchor="end" x="79" y="4.199999999999999" transform="translate(0,116.45)" style="font-family: 'Open Sans', verdana, arial, sans-serif; font-size: 12px; fill: rgb(68, 68, 68); fill-opacity: 1; white-space: pre;">0</text></g></g><g class="overaxes-above"/></g></g><g class="polarlayer"/><g class="ternarylayer"/><g class="geolayer"/><g class="pielayer"/><g class="glimages"/><defs id="topdefs-5af0f3"><g class="clips"/><clipPath id="legend5af0f3"><rect width="81" height="86" x="0" y="0"/></clipPath></defs><g class="layer-above"><g class="imagelayer"/><g class="shapelayer"/></g><g class="infolayer"><g class="legend" pointer-events="all" transform="translate(607.34, 100)"><rect class="bg" shape-rendering="crispEdges" width="81" height="86" x="0" y="0" style="stroke: rgb(68, 68, 68); stroke-opacity: 1; fill: rgb(255, 255, 255); fill-opacity: 1; stroke-width: 0px;"/><g class="scrollbox" transform="translate(0, 0)" clip-path="url(#legend5af0f3)"><g class="groups"><g class="traces" transform="translate(0, 14.5)" style="opacity: 1;"><g class="layers" style="opacity: 1;"><g class="legendfill"/><g class="legendlines"><path class="js-line" d="M5,0h30" style="fill: none; stroke: rgb(153, 51, 153); stroke-opacity: 1; stroke-width: 1.4px;"/></g><g class="legendsymbols"><g class="legendpoints"/></g></g><text class="legendtext user-select-none" text-anchor="start" x="40" y="4.680000000000001" style="font-family: 'Open Sans', verdana, arial, sans-serif; font-size: 12px; fill: rgb(68, 68, 68); fill-opacity: 1; white-space: pre;">PPO</text><rect class="legendtoggle" pointer-events="all" x="0" y="-9.5" width="121" height="19" style="cursor: pointer; fill: rgb(0, 0, 0); fill-opacity: 0;"/></g><g class="traces" transform="translate(0, 33.5)" style="opacity: 1;"><g class="layers" style="opacity: 1;"><g class="legendfill"/><g class="legendlines"><path class="js-line" d="M5,0h30" style="fill: none; stroke: rgb(51, 152, 152); stroke-opacity: 1; stroke-width: 1.4px;"/></g><g class="legendsymbols"><g class="legendpoints"/></g></g><text class="legendtext user-select-none" text-anchor="start" x="40" y="4.680000000000001" style="font-family: 'Open Sans', verdana, arial, sans-serif; font-size: 12px; fill: rgb(68, 68, 68); fill-opacity: 1; white-space: pre;">SAC</text><rect class="legendtoggle" pointer-events="all" x="0" y="-9.5" width="121" height="19" style="cursor: pointer; fill: rgb(0, 0, 0); fill-opacity: 0;"/></g><g class="traces" transform="translate(0, 52.5)" style="opacity: 1;"><g class="layers" style="opacity: 1;"><g class="legendfill"/><g class="legendlines"><path class="js-line" d="M5,0h30" style="fill: none; stroke: rgb(232, 153, 35); stroke-opacity: 1; stroke-width: 1.4px;"/></g><g class="legendsymbols"><g class="legendpoints"/></g></g><text class="legendtext user-select-none" text-anchor="start" x="40" y="4.680000000000001" style="font-family: 'Open Sans', verdana, arial, sans-serif; font-size: 12px; fill: rgb(68, 68, 68); fill-opacity: 1; white-space: pre;">TD3</text><rect class="legendtoggle" pointer-events="all" x="0" y="-9.5" width="121" height="19" style="cursor: pointer; fill: rgb(0, 0, 0); fill-opacity: 0;"/></g><g class="traces" transform="translate(0, 71.5)" style="opacity: 1;"><g class="layers" style="opacity: 1;"><g class="legendfill"/><g class="legendlines"><path class="js-line" d="M5,0h30" style="fill: none; stroke: rgb(200, 78, 0); stroke-opacity: 1; stroke-width: 1.4px;"/></g><g class="legendsymbols"><g class="legendpoints"/></g></g><text class="legendtext user-select-none" text-anchor="start" x="40" y="4.680000000000001" style="font-family: 'Open Sans', verdana, arial, sans-serif; font-size: 12px; fill: rgb(68, 68, 68); fill-opacity: 1; white-space: pre;">DDPG</text><rect class="legendtoggle" pointer-events="all" x="0" y="-9.5" width="121" height="19" style="cursor: pointer; fill: rgb(0, 0, 0); fill-opacity: 0;"/></g></g></g><rect class="scrollbar" rx="20" ry="3" width="0" height="0" x="0" y="0" style="fill: rgb(128, 139, 164); fill-opacity: 1;"/></g><g class="g-gtitle"><text class="gtitle" x="350" y="50" text-anchor="middle" dy="0em" style="font-family: 'Open Sans', verdana, arial, sans-serif; font-size: 17px; fill: rgb(68, 68, 68); opacity: 1; font-weight: normal; white-space: pre;">Pendulum-v0</text></g><g class="g-xtitle"><text class="xtitle" x="338.5" y="422" text-anchor="middle" style="font-family: 'Open Sans', verdana, arial, sans-serif; font-size: 14px; fill: rgb(68, 68, 68); opacity: 1; font-weight: normal; white-space: pre;">Timesteps</text></g><g class="g-ytitle" transform="translate(-8.34375,0)"><text class="ytitle" transform="rotate(-90,42,235)" x="42" y="235" text-anchor="middle" style="font-family: 'Open Sans', verdana, arial, sans-serif; font-size: 14px; fill: rgb(68, 68, 68); opacity: 1; font-weight: normal; white-space: pre;">Episodic Reward</text></g></g></svg>